<svg width="24" height="24" viewBox="0 0 24 24" fill="none" xmlns="http://www.w3.org/2000/svg">
<path d="M10.5797 3.6265L9.8499 3.74529L10.2319 4.37833C11.7178 6.84062 14.416 8.5 17.5 8.5C17.9955 8.5 18.4738 8.44619 18.9203 8.3735L19.6501 8.25471L19.2681 7.62167C17.7822 5.15938 15.084 3.5 12 3.5C11.5045 3.5 11.0262 3.55381 10.5797 3.6265ZM3.94566 9.31189L3.53377 10.5476L4.6667 9.9049C6.48239 8.87495 7.88463 7.19726 8.55434 5.18811L8.96623 3.95244L7.8333 4.5951C6.01761 5.62505 4.61537 7.30274 3.94566 9.31189ZM20.1495 9.61819L20.0181 9.17406L19.5652 9.2711C18.8941 9.41491 18.2095 9.5 17.5 9.5C14.5273 9.5 11.8768 8.13309 10.1271 5.99347L9.59583 5.34388L9.2774 6.12026C8.28094 8.54972 6.29592 10.4603 3.82365 11.3921L3.40691 11.5492L3.5024 11.9312C3.50139 11.9471 3.5 11.9718 3.5 12C3.5 16.6861 7.31386 20.5 12 20.5C16.6861 20.5 20.5 16.6861 20.5 12C20.5 11.1683 20.372 10.3705 20.1495 9.61819ZM9.75 13C9.75 13.4139 9.41386 13.75 9 13.75C8.58614 13.75 8.25 13.4139 8.25 13C8.25 12.5861 8.58614 12.25 9 12.25C9.41386 12.25 9.75 12.5861 9.75 13ZM14.25 13C14.25 12.5861 14.5861 12.25 15 12.25C15.4139 12.25 15.75 12.5861 15.75 13C15.75 13.4139 15.4139 13.75 15 13.75C14.5861 13.75 14.25 13.4139 14.25 13ZM21.5 12C21.5 17.2439 17.2439 21.5 12 21.5C6.75614 21.5 2.5 17.2439 2.5 12C2.5 6.75614 6.75614 2.5 12 2.5C17.2439 2.5 21.5 6.75614 21.5 12Z" fill="#404040" stroke="#404040" style="fill:#404040;fill:color(display-p3 0.2510 0.2510 0.2510);fill-opacity:1;stroke:#404040;stroke:color(display-p3 0.2510 0.2510 0.2510);stroke-opacity:1;"/>
</svg>
