<svg width="20" height="17" viewBox="0 0 20 17" fill="none" xmlns="http://www.w3.org/2000/svg">
<path d="M18.875 3.09375C18.875 3.1875 19.4688 5.75 17.75 8.1875C16.5625 9.9375 14.5938 11.1562 11.875 11.875C11.3125 12.0312 10.9062 12.5625 10.9062 13.1562C10.9062 13.9062 11.5 14.5 12.25 14.5H12.4062C13.2188 14.5 13.9062 15.1875 13.9062 16C13.9062 16.2812 13.7188 16.5 13.4375 16.5H6.46875C6.21875 16.5 6 16.2812 6 16C6 15.1875 6.65625 14.5 7.5 14.5H7.625C8.375 14.5 9 13.9062 8.96875 13.1562C8.96875 12.5625 8.59375 12.0312 8 11.875C5.28125 11.1562 3.3125 9.9375 2.15625 8.1875C0.5 5.75 1.09375 3.1875 1.09375 3.09375C1.1875 2.75 1.5 2.5 1.84375 2.5H5C4.96875 2.125 4.96875 1.78125 5 1.46875C5 0.9375 5.4375 0.5 6 0.5H13.9688C14.5312 0.5 14.9688 0.9375 14.9688 1.46875C15 1.78125 15 2.125 14.9688 2.5H18.125C18.4688 2.5 18.7812 2.75 18.875 3.09375ZM3.40625 7.375C4.125 8.46875 5.28125 9.3125 6.8125 9.9375C5.65625 8.125 5.1875 5.875 5 4H2.5C2.46875 4.75 2.53125 6.09375 3.40625 7.375ZM16.5625 7.375C17.4375 6.09375 17.5 4.75 17.4688 4H14.9688C14.7812 5.875 14.3125 8.125 13.1562 9.9375C14.6875 9.3125 15.8438 8.46875 16.5625 7.375Z" fill="#080808" fill-opacity="0.25" style="fill:#080808;fill:color(display-p3 0.0314 0.0314 0.0314);fill-opacity:0.25;"/>
</svg>
