<svg width="19" height="24" viewBox="0 0 19 24" fill="none" xmlns="http://www.w3.org/2000/svg">
<path d="M16.5 14.5C16.5 14.9688 16.2812 15.3438 16 15.625V18.1562C16.2812 18.3438 16.5 18.6562 16.5 19C16.5 19.5625 16.0312 20 15.5 20H5.5C3.8125 20 2.5 18.6875 2.5 17V7C2.5 5.34375 3.8125 4 5.5 4H8.5V10C8.5 10.4375 8.96875 10.6562 9.28125 10.4062L11 9L12.6875 10.375C13 10.625 13.5 10.4062 13.5 10V4H15C15.8125 4 16.5 4.6875 16.5 5.5V14.5ZM14.5 18V16H5.5C4.9375 16 4.5 16.4688 4.5 17C4.5 17.5625 4.9375 18 5.5 18H14.5Z" fill="#080808" fill-opacity="0.25" style="fill:#080808;fill:color(display-p3 0.0314 0.0314 0.0314);fill-opacity:0.25;"/>
</svg>
